# Created by Kenney (www.kenney.nl)

mtllib gun-1.mtl

v 2 2 -0.25
v 2 1.5 -0.25
v 2 2 0.25
v 2 1.5 0.25
v 1 2 -0.25
v 1 2 0.25
v 1 1.5 0.25
v 1 1.5 -0.25
v 1 -1 -0.25
v 1 -1 0.25
v 0.5 -1 -0.25
v 0.5 -1 0.25
v 1 -1.5 -0.25
v 1 -1.5 0.25
v 0.5 -1.5 -0.25
v 0.5 -1.5 0.25
v -1 2 -0.25
v -1 1.5 -0.25
v -1 2 0.25
v -1 1.5 0.25
v -2 2 -0.25
v -2 2 0.25
v -2 1.5 0.25
v -2 1.5 -0.25
v -1 -1 0.25
v -2 -2 0.25
v -2 -1 0.25
v -1 -1 -0.25
v -2 -2 -0.25
v -2 -1 -0.25
v -3 -3 0.25
v -3 -2 0.25
v -3 -3 -0.25
v -3 -2 -0.25
v -4 -2 -0.25
v -3 -1 -0.25
v -3 -1 0.25
v -4 -2 0.25
v -5.5 -1 0.5
v -5.5 -1 -0.5
v -6 -0.5 0.5
v -6 -0.5 -0.5
v -5 -1 -0.5
v -5 0 -0.5
v -6 0 -0.5
v -5 0 0.5
v -6 0 0.5
v -5 -1 0.5
v 1 1 -0.25
v 1 1 0.25
v -1 1 0.25
v -1 1 -0.25
v 6 1 -0.5
v 6 -2 -0.5
v 6 1 0.5
v 6 -2 0.5
v 5 1 -0.5
v 5 1 0.5
v 5 -2 0.5
v 5 -2 -0.5
v 4 1 -0.5
v 4 0 -0.5
v 4 1 0.5
v 4 0 0.5
v -7 1 -0.5
v -7 1 0.5
v -7 0 0.5
v -7 0 -0.5
v 5 0 -0.25
v 5 -1 -0.25
v 5 0 0.25
v 5 -1 0.25
v 4 0 -0.25
v 4 0 0.25
v 4 -1 0.25
v 4 -1 -0.25
v 4 -1 -0.5
v 4 -1 0.5
v 5 -1 -0.5
v 5 -1 0.5
v 4 -2 0.5
v 4 -2 -0.5
v 2 -1 -0.5
v 2 -2 -0.5
v 2 -1 0.5
v 2 -2 0.5
v 1 -1 -0.5
v 1 -1 0.5
v 1 -2 0.5
v 1 -2 -0.5

vn 1 0 0
vn 0 1 0
vn 0 -1 0
vn 0 0 -1
vn -1 0 0
vn 0 0 1
vn 0.7071068 -0.7071068 0
vn -0.7071068 0.7071068 0
vn -0.7071068 -0.7071068 0
vn -0.7071068 -0.7071068 0

vt 0.875 0.65625
vt 0.875 0.6484375
vt 0.890625 0.65625
vt 0.890625 0.6484375
vt 0.34375 0.875
vt 0.34375 0.890625
vt 0.359375 0.875
vt 0.359375 0.890625
vt 0.34375 0.390625
vt 0.34375 0.375
vt 0.359375 0.390625
vt 0.359375 0.375
vt 0.109375 0.6484375
vt 0.09375 0.6484375
vt 0.109375 0.65625
vt 0.09375 0.65625
vt 0.375 0.6484375
vt 0.375 0.65625
vt 0.390625 0.6484375
vt 0.390625 0.65625
vt 0.640625 0.6484375
vt 0.640625 0.65625
vt 0.65625 0.6484375
vt 0.65625 0.65625
vt 0.3671875 0.875
vt 0.3671875 0.890625
vt 0.875 0.609375
vt 0.875 0.6015625
vt 0.890625 0.609375
vt 0.890625 0.6015625
vt 0.1171875 0.6015625
vt 0.109375 0.6015625
vt 0.1171875 0.609375
vt 0.109375 0.609375
vt 0.375 0.6015625
vt 0.375 0.609375
vt 0.390625 0.6015625
vt 0.390625 0.609375
vt 0.3671875 0.390625
vt 0.3671875 0.375
vt 0.6328125 0.6015625
vt 0.6328125 0.609375
vt 0.640625 0.6015625
vt 0.640625 0.609375
vt 0.390625 0.875
vt 0.390625 0.890625
vt 0.40625 0.875
vt 0.40625 0.890625
vt 0.390625 0.390625
vt 0.390625 0.375
vt 0.40625 0.390625
vt 0.40625 0.375
vt 0.15625 0.6484375
vt 0.140625 0.6484375
vt 0.15625 0.65625
vt 0.140625 0.65625
vt 0.59375 0.6484375
vt 0.59375 0.65625
vt 0.609375 0.6484375
vt 0.609375 0.65625
vt 0.609375 0.609375
vt 0.59375 0.59375
vt 0.59375 0.609375
vt 0.375 0.59375
vt 0.390625 0.59375
vt 0.15625 0.59375
vt 0.140625 0.609375
vt 0.15625 0.609375
vt 0.578125 0.578125
vt 0.578125 0.59375
vt 0.421875 0.390625
vt 0.421875 0.375
vt 0.421875 0.875
vt 0.421875 0.890625
vt 0.375 0.578125
vt 0.390625 0.578125
vt 0.171875 0.578125
vt 0.171875 0.59375
vt 0.1875 0.59375
vt 0.171875 0.609375
vt 0.875 0.59375
vt 0.890625 0.59375
vt 0.4375 0.875
vt 0.4375 0.890625
vt 0.4375 0.390625
vt 0.4375 0.375
vt 0.5625 0.59375
vt 0.578125 0.609375
vt 0.875 0.578125
vt 0.890625 0.578125
vt 0.4609375 0.3984375
vt 0.4609375 0.3671875
vt 0.46875 0.3984375
vt 0.46875 0.3671875
vt 0.203125 0.609375
vt 0.203125 0.625
vt 0.2109375 0.609375
vt 0.21875 0.6171875
vt 0.21875 0.625
vt 0.453125 0.8671875
vt 0.453125 0.8984375
vt 0.46875 0.8671875
vt 0.46875 0.8984375
vt 0.453125 0.3984375
vt 0.453125 0.3671875
vt 0.3671875 0.625
vt 0.3984375 0.625
vt 0.3671875 0.6171875
vt 0.3984375 0.6171875
vt 0.8671875 0.625
vt 0.8671875 0.609375
vt 0.8984375 0.625
vt 0.8984375 0.609375
vt 0.546875 0.609375
vt 0.5390625 0.609375
vt 0.546875 0.625
vt 0.53125 0.6171875
vt 0.53125 0.625
vt 0.875 0.640625
vt 0.890625 0.640625
vt 0.375 0.640625
vt 0.390625 0.640625
vt 0.140625 0.640625
vt 0.109375 0.640625
vt 0.640625 0.640625
vt 0.609375 0.640625
vt 0.8671875 0.640625
vt 0.8671875 0.59375
vt 0.8984375 0.640625
vt 0.8984375 0.59375
vt 0.28125 0.8671875
vt 0.28125 0.8984375
vt 0.296875 0.8671875
vt 0.296875 0.8984375
vt 0.28125 0.3984375
vt 0.28125 0.3671875
vt 0.296875 0.3984375
vt 0.296875 0.3671875
vt 0.3671875 0.59375
vt 0.3671875 0.640625
vt 0.3984375 0.59375
vt 0.3984375 0.640625
vt 0.046875 0.59375
vt 0.03125 0.59375
vt 0.046875 0.640625
vt 0.03125 0.640625
vt 0.71875 0.59375
vt 0.703125 0.59375
vt 0.71875 0.640625
vt 0.703125 0.640625
vt 0.3125 0.8671875
vt 0.3125 0.8984375
vt 0.484375 0.8671875
vt 0.484375 0.8984375
vt 0.3125 0.3984375
vt 0.3125 0.3671875
vt 0.484375 0.3984375
vt 0.484375 0.3671875
vt 0.234375 0.625
vt 0.0625 0.625
vt 0.234375 0.640625
vt 0.0625 0.640625
vt 0.6875 0.625
vt 0.515625 0.625
vt 0.6875 0.640625
vt 0.515625 0.640625
vt 0.875 0.625
vt 0.890625 0.625
vt 0.296875 0.875
vt 0.296875 0.890625
vt 0.3125 0.875
vt 0.3125 0.890625
vt 0.296875 0.390625
vt 0.296875 0.375
vt 0.3125 0.390625
vt 0.3125 0.375
vt 0.375 0.625
vt 0.390625 0.625
vt 0.0625 0.609375
vt 0.046875 0.609375
vt 0.046875 0.625
vt 0.703125 0.609375
vt 0.6875 0.609375
vt 0.703125 0.625
vt 0.3671875 0.609375
vt 0.3984375 0.609375
vt 0.0625 0.59375
vt 0.6875 0.59375
vt 0.34375 0.8671875
vt 0.34375 0.8984375
vt 0.359375 0.8671875
vt 0.359375 0.8984375
vt 0.34375 0.3984375
vt 0.34375 0.3671875
vt 0.359375 0.3984375
vt 0.359375 0.3671875
vt 0.109375 0.59375
vt 0.09375 0.59375
vt 0.09375 0.609375
vt 0.65625 0.59375
vt 0.640625 0.59375
vt 0.65625 0.609375

usemtl gun-1

f 3/3/1 2/2/1 1/1/1
f 2/2/1 3/3/1 4/4/1
f 5/7/2 3/6/2 1/5/2
f 3/6/2 5/7/2 6/8/2
f 7/11/3 2/10/3 4/9/3
f 2/10/3 7/11/3 8/12/3
f 5/15/4 2/14/4 8/13/4
f 2/14/4 5/15/4 1/16/4
f 7/19/5 5/18/5 8/17/5
f 5/18/5 7/19/5 6/20/5
f 4/23/6 6/22/6 7/21/6
f 6/22/6 4/23/6 3/24/6
f 11/25/2 10/8/2 9/7/2
f 10/8/2 11/25/2 12/26/2
f 10/29/1 13/28/1 9/27/1
f 13/28/1 10/29/1 14/30/1
f 11/33/4 13/32/4 15/31/4
f 13/32/4 11/33/4 9/34/4
f 16/37/5 11/36/5 15/35/5
f 11/36/5 16/37/5 12/38/5
f 16/39/3 13/12/3 14/11/3
f 13/12/3 16/39/3 15/40/3
f 14/43/6 12/42/6 16/41/6
f 12/42/6 14/43/6 10/44/6
f 19/3/1 18/2/1 17/1/1
f 18/2/1 19/3/1 20/4/1
f 21/47/2 19/46/2 17/45/2
f 19/46/2 21/47/2 22/48/2
f 23/51/3 18/50/3 20/49/3
f 18/50/3 23/51/3 24/52/3
f 21/55/4 18/54/4 24/53/4
f 18/54/4 21/55/4 17/56/4
f 23/19/5 21/18/5 24/17/5
f 21/18/5 23/19/5 22/20/5
f 20/59/6 22/58/6 23/57/6
f 22/58/6 20/59/6 19/60/6
f 27/63/6 26/62/6 25/61/6
f 26/51/7 28/50/7 25/49/7
f 28/50/7 26/51/7 29/52/7
f 30/47/2 25/46/2 28/45/2
f 25/46/2 30/47/2 27/48/2
f 26/65/5 30/36/5 29/64/5
f 30/36/5 26/65/5 27/38/5
f 30/68/4 28/67/4 29/66/4
f 32/70/6 31/69/6 26/62/6
f 31/71/7 29/52/7 26/51/7
f 29/52/7 31/71/7 33/72/7
f 34/73/2 26/48/2 29/47/2
f 26/48/2 34/73/2 32/74/2
f 31/76/5 34/64/5 33/75/5
f 34/64/5 31/76/5 32/65/5
f 34/78/4 29/66/4 33/77/4
f 36/80/4 34/78/4 35/79/4
f 37/29/1 34/81/1 36/27/1
f 34/81/1 37/29/1 32/82/1
f 38/84/8 36/73/8 35/83/8
f 36/73/8 38/84/8 37/74/8
f 38/85/3 34/72/3 32/71/3
f 34/72/3 38/85/3 35/86/3
f 37/88/6 38/87/6 32/70/6
f 32/82/1 33/89/1 34/81/1
f 33/89/1 32/82/1 31/90/1
f 31/71/9 35/86/9 33/72/9
f 35/86/9 31/71/9 38/85/9
f 35/79/4 34/78/4 33/77/4
f 35/83/2 32/74/2 34/73/2
f 32/74/2 35/83/2 38/84/2
f 38/87/6 31/69/6 32/70/6
f 41/93/10 40/92/10 39/91/10
f 40/92/10 41/93/10 42/94/10
f 40/97/4 44/96/4 43/95/4
f 44/96/4 40/97/4 42/98/4
f 44/96/4 42/98/4 45/99/4
f 45/102/2 46/101/2 44/100/2
f 46/101/2 45/102/2 47/103/2
f 39/91/3 43/105/3 48/104/3
f 43/105/3 39/91/3 40/92/3
f 42/108/5 47/107/5 45/106/5
f 47/107/5 42/108/5 41/109/5
f 46/112/1 43/111/1 44/110/1
f 43/111/1 46/112/1 48/113/1
f 46/116/6 39/115/6 48/114/6
f 39/115/6 46/116/6 41/117/6
f 41/117/6 46/116/6 47/118/6
f 6/3/1 49/119/1 5/1/1
f 49/119/1 6/3/1 50/120/1
f 17/45/2 6/8/2 5/7/2
f 6/8/2 17/45/2 19/46/2
f 51/49/3 49/12/3 50/11/3
f 49/12/3 51/49/3 52/50/3
f 51/122/5 17/18/5 52/121/5
f 17/18/5 51/122/5 19/20/5
f 17/56/4 49/124/4 52/123/4
f 49/124/4 17/56/4 5/15/4
f 6/22/6 51/126/6 50/125/6
f 51/126/6 6/22/6 19/60/6
f 55/129/1 54/128/1 53/127/1
f 54/128/1 55/129/1 56/130/1
f 57/133/2 55/132/2 53/131/2
f 55/132/2 57/133/2 58/134/2
f 59/137/3 54/136/3 56/135/3
f 54/136/3 59/137/3 60/138/3
f 59/141/5 57/140/5 60/139/5
f 57/140/5 59/141/5 58/142/5
f 57/145/4 54/144/4 60/143/4
f 54/144/4 57/145/4 53/146/4
f 55/149/6 59/148/6 56/147/6
f 59/148/6 55/149/6 58/150/6
f 63/129/1 62/110/1 61/127/1
f 62/110/1 63/129/1 64/112/1
f 65/153/2 63/152/2 61/151/2
f 63/152/2 65/153/2 66/154/2
f 67/157/3 62/156/3 64/155/3
f 62/156/3 67/157/3 68/158/3
f 67/107/5 65/140/5 68/106/5
f 65/140/5 67/107/5 66/142/5
f 65/161/4 62/160/4 68/159/4
f 62/160/4 65/161/4 61/162/4
f 63/165/6 67/164/6 64/163/6
f 67/164/6 63/165/6 66/166/6
f 71/168/1 70/27/1 69/167/1
f 70/27/1 71/168/1 72/29/1
f 73/171/2 71/170/2 69/169/2
f 71/170/2 73/171/2 74/172/2
f 75/175/3 70/174/3 72/173/3
f 70/174/3 75/175/3 76/176/3
f 75/38/5 73/177/5 76/36/5
f 73/177/5 75/38/5 74/178/5
f 73/160/4 70/180/4 76/179/4
f 70/180/4 73/160/4 69/181/4
f 71/184/6 75/183/6 72/182/6
f 75/183/6 71/184/6 74/163/6
f 64/112/1 77/111/1 62/110/1
f 77/111/1 64/112/1 78/113/1
f 44/100/2 64/152/2 62/151/2
f 64/152/2 44/100/2 46/101/2
f 48/104/3 77/156/3 78/155/3
f 77/156/3 48/104/3 43/105/3
f 48/186/5 44/106/5 43/185/5
f 44/106/5 48/186/5 46/107/5
f 44/96/4 77/179/4 43/95/4
f 77/179/4 44/96/4 62/160/4
f 64/163/6 48/114/6 78/183/6
f 48/114/6 64/163/6 46/116/6
f 80/113/1 60/128/1 79/111/1
f 60/128/1 80/113/1 59/130/1
f 77/151/2 80/134/2 79/133/2
f 80/134/2 77/151/2 78/152/2
f 81/155/3 60/138/3 59/137/3
f 60/138/3 81/155/3 82/156/3
f 81/141/5 77/185/5 82/139/5
f 77/185/5 81/141/5 78/186/5
f 77/179/4 60/143/4 82/187/4
f 60/143/4 77/179/4 79/180/4
f 80/182/6 81/188/6 59/148/6
f 81/188/6 80/182/6 78/183/6
f 85/113/1 84/128/1 83/111/1
f 84/128/1 85/113/1 86/130/1
f 87/191/2 85/190/2 83/189/2
f 85/190/2 87/191/2 88/192/2
f 89/195/3 84/194/3 86/193/3
f 84/194/3 89/195/3 90/196/3
f 89/141/5 87/185/5 90/139/5
f 87/185/5 89/141/5 88/186/5
f 87/34/4 84/198/4 90/197/4
f 84/198/4 87/34/4 83/199/4
f 85/202/6 89/201/6 86/200/6
f 89/201/6 85/202/6 88/44/6
f 27/29/1 29/81/1 30/27/1
f 29/81/1 27/29/1 26/82/1
f 36/73/2 27/48/2 30/47/2
f 27/48/2 36/73/2 37/74/2
f 32/71/3 29/52/3 26/51/3
f 29/52/3 32/71/3 34/72/3
f 32/65/5 36/36/5 34/64/5
f 36/36/5 32/65/5 37/38/5
f 36/80/4 29/66/4 34/78/4
f 29/66/4 36/80/4 30/68/4
f 27/63/6 32/70/6 26/62/6
f 32/70/6 27/63/6 37/88/6

